<mxfile host="65bd71144e">
    <diagram id="lGCFQGRZhw7MTTtFVWTq" name="Page-1">
        <mxGraphModel dx="2430" dy="1904" grid="1" gridSize="10" guides="1" tooltips="1" connect="1" arrows="1" fold="1" page="1" pageScale="1" pageWidth="850" pageHeight="1100" math="0" shadow="0">
            <root>
                <mxCell id="0"/>
                <mxCell id="1" parent="0"/>
                <mxCell id="37" value="USER" style="swimlane;fontStyle=0;align=center;verticalAlign=top;childLayout=stackLayout;horizontal=1;startSize=55;horizontalStack=0;resizeParent=1;resizeParentMax=0;resizeLast=0;collapsible=0;marginBottom=0;html=1;rounded=0;strokeColor=default;strokeWidth=1;" parent="1" vertex="1">
                    <mxGeometry y="-480" width="160" height="243" as="geometry"/>
                </mxCell>
                <mxCell id="48" value="- id : Int" style="text;html=1;strokeColor=none;fillColor=none;align=left;verticalAlign=middle;spacingLeft=4;spacingRight=4;overflow=hidden;rotatable=0;points=[[0,0.5],[1,0.5]];portConstraint=eastwest;rounded=0;strokeWidth=1;" parent="37" vertex="1">
                    <mxGeometry y="55" width="160" height="20" as="geometry"/>
                </mxCell>
                <mxCell id="53" value="- created : Date" style="text;html=1;strokeColor=none;fillColor=none;align=left;verticalAlign=middle;spacingLeft=4;spacingRight=4;overflow=hidden;rotatable=0;points=[[0,0.5],[1,0.5]];portConstraint=eastwest;rounded=0;strokeWidth=1;" parent="37" vertex="1">
                    <mxGeometry y="75" width="160" height="20" as="geometry"/>
                </mxCell>
                <mxCell id="97" value="- modified : Date" style="text;html=1;strokeColor=none;fillColor=none;align=left;verticalAlign=middle;spacingLeft=4;spacingRight=4;overflow=hidden;rotatable=0;points=[[0,0.5],[1,0.5]];portConstraint=eastwest;rounded=0;strokeWidth=1;" parent="37" vertex="1">
                    <mxGeometry y="95" width="160" height="20" as="geometry"/>
                </mxCell>
                <mxCell id="56" value="- nome : String" style="text;html=1;strokeColor=none;fillColor=none;align=left;verticalAlign=middle;spacingLeft=4;spacingRight=4;overflow=hidden;rotatable=0;points=[[0,0.5],[1,0.5]];portConstraint=eastwest;rounded=0;strokeWidth=1;" parent="37" vertex="1">
                    <mxGeometry y="115" width="160" height="20" as="geometry"/>
                </mxCell>
                <mxCell id="55" value="- email : String" style="text;html=1;strokeColor=none;fillColor=none;align=left;verticalAlign=middle;spacingLeft=4;spacingRight=4;overflow=hidden;rotatable=0;points=[[0,0.5],[1,0.5]];portConstraint=eastwest;rounded=0;strokeWidth=1;" parent="37" vertex="1">
                    <mxGeometry y="135" width="160" height="20" as="geometry"/>
                </mxCell>
                <mxCell id="54" value="- password : String" style="text;html=1;strokeColor=none;fillColor=none;align=left;verticalAlign=middle;spacingLeft=4;spacingRight=4;overflow=hidden;rotatable=0;points=[[0,0.5],[1,0.5]];portConstraint=eastwest;rounded=0;strokeWidth=1;" parent="37" vertex="1">
                    <mxGeometry y="155" width="160" height="20" as="geometry"/>
                </mxCell>
                <mxCell id="124" style="text;html=1;strokeColor=none;fillColor=none;align=left;verticalAlign=middle;spacingLeft=4;spacingRight=4;overflow=hidden;rotatable=0;points=[[0,0.5],[1,0.5]];portConstraint=eastwest;rounded=0;strokeWidth=1;" vertex="1" parent="37">
                    <mxGeometry y="175" width="160" height="20" as="geometry"/>
                </mxCell>
                <mxCell id="42" value="" style="line;strokeWidth=1;fillColor=none;align=left;verticalAlign=middle;spacingTop=-1;spacingLeft=3;spacingRight=3;rotatable=0;labelPosition=right;points=[];portConstraint=eastwest;rounded=0;strokeColor=default;" parent="37" vertex="1">
                    <mxGeometry y="195" width="160" height="8" as="geometry"/>
                </mxCell>
                <mxCell id="46" value="+ Get() : USER" style="text;html=1;strokeColor=none;fillColor=none;align=left;verticalAlign=middle;spacingLeft=4;spacingRight=4;overflow=hidden;rotatable=0;points=[[0,0.5],[1,0.5]];portConstraint=eastwest;rounded=0;strokeWidth=1;" parent="37" vertex="1">
                    <mxGeometry y="203" width="160" height="20" as="geometry"/>
                </mxCell>
                <mxCell id="98" style="text;html=1;strokeColor=none;fillColor=none;align=left;verticalAlign=middle;spacingLeft=4;spacingRight=4;overflow=hidden;rotatable=0;points=[[0,0.5],[1,0.5]];portConstraint=eastwest;rounded=0;strokeWidth=1;" parent="37" vertex="1">
                    <mxGeometry y="223" width="160" height="20" as="geometry"/>
                </mxCell>
                <mxCell id="103" style="edgeStyle=none;html=1;entryX=1;entryY=0.5;entryDx=0;entryDy=0;strokeColor=default;endArrow=none;endFill=0;" parent="1" source="49" target="56" edge="1">
                    <mxGeometry relative="1" as="geometry">
                        <Array as="points">
                            <mxPoint x="480" y="-355"/>
                        </Array>
                    </mxGeometry>
                </mxCell>
                <mxCell id="109" value="N" style="edgeLabel;html=1;align=center;verticalAlign=middle;resizable=0;points=[];" parent="103" vertex="1" connectable="0">
                    <mxGeometry x="-0.7618" y="1" relative="1" as="geometry">
                        <mxPoint as="offset"/>
                    </mxGeometry>
                </mxCell>
                <mxCell id="110" value="1" style="edgeLabel;html=1;align=center;verticalAlign=middle;resizable=0;points=[];" parent="103" vertex="1" connectable="0">
                    <mxGeometry x="0.5358" y="-1" relative="1" as="geometry">
                        <mxPoint as="offset"/>
                    </mxGeometry>
                </mxCell>
                <mxCell id="49" value="SLEEP" style="swimlane;fontStyle=0;align=center;verticalAlign=top;childLayout=stackLayout;horizontal=1;startSize=55;horizontalStack=0;resizeParent=1;resizeParentMax=0;resizeLast=0;collapsible=0;marginBottom=0;html=1;rounded=0;strokeColor=default;strokeWidth=1;" parent="1" vertex="1">
                    <mxGeometry x="400" y="-240" width="160" height="363" as="geometry"/>
                </mxCell>
                <mxCell id="50" value="- id : Int" style="text;html=1;strokeColor=none;fillColor=none;align=left;verticalAlign=middle;spacingLeft=4;spacingRight=4;overflow=hidden;rotatable=0;points=[[0,0.5],[1,0.5]];portConstraint=eastwest;rounded=0;strokeWidth=1;" parent="49" vertex="1">
                    <mxGeometry y="55" width="160" height="20" as="geometry"/>
                </mxCell>
                <mxCell id="61" value="- created : Date" style="text;html=1;strokeColor=none;fillColor=none;align=left;verticalAlign=middle;spacingLeft=4;spacingRight=4;overflow=hidden;rotatable=0;points=[[0,0.5],[1,0.5]];portConstraint=eastwest;rounded=0;strokeWidth=1;" parent="49" vertex="1">
                    <mxGeometry y="75" width="160" height="20" as="geometry"/>
                </mxCell>
                <mxCell id="99" value="- modified : Date" style="text;html=1;strokeColor=none;fillColor=none;align=left;verticalAlign=middle;spacingLeft=4;spacingRight=4;overflow=hidden;rotatable=0;points=[[0,0.5],[1,0.5]];portConstraint=eastwest;rounded=0;strokeWidth=1;" parent="49" vertex="1">
                    <mxGeometry y="95" width="160" height="20" as="geometry"/>
                </mxCell>
                <mxCell id="68" value="- dreams : DREAMS[]" style="text;html=1;strokeColor=none;fillColor=none;align=left;verticalAlign=middle;spacingLeft=4;spacingRight=4;overflow=hidden;rotatable=0;points=[[0,0.5],[1,0.5]];portConstraint=eastwest;rounded=0;strokeWidth=1;" parent="49" vertex="1">
                    <mxGeometry y="115" width="160" height="20" as="geometry"/>
                </mxCell>
                <mxCell id="67" value="- date : Date" style="text;html=1;strokeColor=none;fillColor=none;align=left;verticalAlign=middle;spacingLeft=4;spacingRight=4;overflow=hidden;rotatable=0;points=[[0,0.5],[1,0.5]];portConstraint=eastwest;rounded=0;strokeWidth=1;" parent="49" vertex="1">
                    <mxGeometry y="135" width="160" height="20" as="geometry"/>
                </mxCell>
                <mxCell id="66" value="- sleepTime : Int" style="text;html=1;strokeColor=none;fillColor=none;align=left;verticalAlign=middle;spacingLeft=4;spacingRight=4;overflow=hidden;rotatable=0;points=[[0,0.5],[1,0.5]];portConstraint=eastwest;rounded=0;strokeWidth=1;" parent="49" vertex="1">
                    <mxGeometry y="155" width="160" height="20" as="geometry"/>
                </mxCell>
                <mxCell id="65" value="- sleepStart : Date" style="text;html=1;strokeColor=none;fillColor=none;align=left;verticalAlign=middle;spacingLeft=4;spacingRight=4;overflow=hidden;rotatable=0;points=[[0,0.5],[1,0.5]];portConstraint=eastwest;rounded=0;strokeWidth=1;" parent="49" vertex="1">
                    <mxGeometry y="175" width="160" height="20" as="geometry"/>
                </mxCell>
                <mxCell id="64" value="- sleepEnd : Date" style="text;html=1;strokeColor=none;fillColor=none;align=left;verticalAlign=middle;spacingLeft=4;spacingRight=4;overflow=hidden;rotatable=0;points=[[0,0.5],[1,0.5]];portConstraint=eastwest;rounded=0;strokeWidth=1;" parent="49" vertex="1">
                    <mxGeometry y="195" width="160" height="20" as="geometry"/>
                </mxCell>
                <mxCell id="63" value="- wakeUpHumor : JSON" style="text;html=1;strokeColor=none;fillColor=none;align=left;verticalAlign=middle;spacingLeft=4;spacingRight=4;overflow=hidden;rotatable=0;points=[[0,0.5],[1,0.5]];portConstraint=eastwest;rounded=0;strokeWidth=1;" parent="49" vertex="1">
                    <mxGeometry y="215" width="160" height="20" as="geometry"/>
                </mxCell>
                <mxCell id="127" value="- layDownHumor : JSON" style="text;html=1;strokeColor=none;fillColor=none;align=left;verticalAlign=middle;spacingLeft=4;spacingRight=4;overflow=hidden;rotatable=0;points=[[0,0.5],[1,0.5]];portConstraint=eastwest;rounded=0;strokeWidth=1;" vertex="1" parent="49">
                    <mxGeometry y="235" width="160" height="20" as="geometry"/>
                </mxCell>
                <mxCell id="62" value="- biologicalOccurences : JSON" style="text;html=1;strokeColor=none;fillColor=none;align=left;verticalAlign=middle;spacingLeft=4;spacingRight=4;overflow=hidden;rotatable=0;points=[[0,0.5],[1,0.5]];portConstraint=eastwest;rounded=0;strokeWidth=1;" parent="49" vertex="1">
                    <mxGeometry y="255" width="160" height="20" as="geometry"/>
                </mxCell>
                <mxCell id="125" style="text;html=1;strokeColor=none;fillColor=none;align=left;verticalAlign=middle;spacingLeft=4;spacingRight=4;overflow=hidden;rotatable=0;points=[[0,0.5],[1,0.5]];portConstraint=eastwest;rounded=0;strokeWidth=1;" vertex="1" parent="49">
                    <mxGeometry y="275" width="160" height="20" as="geometry"/>
                </mxCell>
                <mxCell id="51" value="" style="line;strokeWidth=1;fillColor=none;align=left;verticalAlign=middle;spacingTop=-1;spacingLeft=3;spacingRight=3;rotatable=0;labelPosition=right;points=[];portConstraint=eastwest;rounded=0;strokeColor=default;" parent="49" vertex="1">
                    <mxGeometry y="295" width="160" height="8" as="geometry"/>
                </mxCell>
                <mxCell id="52" value="+ CalculateSleepTime() : void" style="text;html=1;strokeColor=none;fillColor=none;align=left;verticalAlign=middle;spacingLeft=4;spacingRight=4;overflow=hidden;rotatable=0;points=[[0,0.5],[1,0.5]];portConstraint=eastwest;rounded=0;strokeWidth=1;" parent="49" vertex="1">
                    <mxGeometry y="303" width="160" height="20" as="geometry"/>
                </mxCell>
                <mxCell id="71" value="+ AttachDream() : void" style="text;html=1;strokeColor=none;fillColor=none;align=left;verticalAlign=middle;spacingLeft=4;spacingRight=4;overflow=hidden;rotatable=0;points=[[0,0.5],[1,0.5]];portConstraint=eastwest;rounded=0;strokeWidth=1;" parent="49" vertex="1">
                    <mxGeometry y="323" width="160" height="20" as="geometry"/>
                </mxCell>
                <mxCell id="70" style="text;html=1;strokeColor=none;fillColor=none;align=left;verticalAlign=middle;spacingLeft=4;spacingRight=4;overflow=hidden;rotatable=0;points=[[0,0.5],[1,0.5]];portConstraint=eastwest;rounded=0;strokeWidth=1;" parent="49" vertex="1">
                    <mxGeometry y="343" width="160" height="20" as="geometry"/>
                </mxCell>
                <mxCell id="72" value="DREAM" style="swimlane;fontStyle=0;align=center;verticalAlign=top;childLayout=stackLayout;horizontal=1;startSize=55;horizontalStack=0;resizeParent=1;resizeParentMax=0;resizeLast=0;collapsible=0;marginBottom=0;html=1;rounded=0;strokeColor=default;strokeWidth=1;" parent="1" vertex="1">
                    <mxGeometry x="-400" y="-240" width="160" height="423" as="geometry"/>
                </mxCell>
                <mxCell id="73" value="- id : Int" style="text;html=1;strokeColor=none;fillColor=none;align=left;verticalAlign=middle;spacingLeft=4;spacingRight=4;overflow=hidden;rotatable=0;points=[[0,0.5],[1,0.5]];portConstraint=eastwest;rounded=0;strokeWidth=1;" parent="72" vertex="1">
                    <mxGeometry y="55" width="160" height="20" as="geometry"/>
                </mxCell>
                <mxCell id="96" value="- created : Date" style="text;html=1;strokeColor=none;fillColor=none;align=left;verticalAlign=middle;spacingLeft=4;spacingRight=4;overflow=hidden;rotatable=0;points=[[0,0.5],[1,0.5]];portConstraint=eastwest;rounded=0;strokeWidth=1;" parent="72" vertex="1">
                    <mxGeometry y="75" width="160" height="20" as="geometry"/>
                </mxCell>
                <mxCell id="86" value="- modified : Date" style="text;html=1;strokeColor=none;fillColor=none;align=left;verticalAlign=middle;spacingLeft=4;spacingRight=4;overflow=hidden;rotatable=0;points=[[0,0.5],[1,0.5]];portConstraint=eastwest;rounded=0;strokeWidth=1;" parent="72" vertex="1">
                    <mxGeometry y="95" width="160" height="20" as="geometry"/>
                </mxCell>
                <mxCell id="78" value="- title : String" style="text;html=1;strokeColor=none;fillColor=none;align=left;verticalAlign=middle;spacingLeft=4;spacingRight=4;overflow=hidden;rotatable=0;points=[[0,0.5],[1,0.5]];portConstraint=eastwest;rounded=0;strokeWidth=1;" parent="72" vertex="1">
                    <mxGeometry y="115" width="160" height="20" as="geometry"/>
                </mxCell>
                <mxCell id="77" value="- description : String" style="text;html=1;strokeColor=none;fillColor=none;align=left;verticalAlign=middle;spacingLeft=4;spacingRight=4;overflow=hidden;rotatable=0;points=[[0,0.5],[1,0.5]];portConstraint=eastwest;rounded=0;strokeWidth=1;" parent="72" vertex="1">
                    <mxGeometry y="135" width="160" height="20" as="geometry"/>
                </mxCell>
                <mxCell id="76" value="- pointOfViewId : Int" style="text;html=1;strokeColor=none;fillColor=none;align=left;verticalAlign=middle;spacingLeft=4;spacingRight=4;overflow=hidden;rotatable=0;points=[[0,0.5],[1,0.5]];portConstraint=eastwest;rounded=0;strokeWidth=1;" parent="72" vertex="1">
                    <mxGeometry y="155" width="160" height="20" as="geometry"/>
                </mxCell>
                <mxCell id="84" value="- climate : JSON" style="text;html=1;strokeColor=none;fillColor=none;align=left;verticalAlign=middle;spacingLeft=4;spacingRight=4;overflow=hidden;rotatable=0;points=[[0,0.5],[1,0.5]];portConstraint=eastwest;rounded=0;strokeWidth=1;" parent="72" vertex="1">
                    <mxGeometry y="175" width="160" height="20" as="geometry"/>
                </mxCell>
                <mxCell id="128" value="- hour : JSON" style="text;html=1;strokeColor=none;fillColor=none;align=left;verticalAlign=middle;spacingLeft=4;spacingRight=4;overflow=hidden;rotatable=0;points=[[0,0.5],[1,0.5]];portConstraint=eastwest;rounded=0;strokeWidth=1;" vertex="1" parent="72">
                    <mxGeometry y="195" width="160" height="20" as="geometry"/>
                </mxCell>
                <mxCell id="83" value="- humor : JSON" style="text;html=1;strokeColor=none;fillColor=none;align=left;verticalAlign=middle;spacingLeft=4;spacingRight=4;overflow=hidden;rotatable=0;points=[[0,0.5],[1,0.5]];portConstraint=eastwest;rounded=0;strokeWidth=1;" parent="72" vertex="1">
                    <mxGeometry y="215" width="160" height="20" as="geometry"/>
                </mxCell>
                <mxCell id="82" value="- duration : String" style="text;html=1;strokeColor=none;fillColor=none;align=left;verticalAlign=middle;spacingLeft=4;spacingRight=4;overflow=hidden;rotatable=0;points=[[0,0.5],[1,0.5]];portConstraint=eastwest;rounded=0;strokeWidth=1;" parent="72" vertex="1">
                    <mxGeometry y="235" width="160" height="20" as="geometry"/>
                </mxCell>
                <mxCell id="81" value="-&amp;nbsp;lucidityLevel : String" style="text;html=1;strokeColor=none;fillColor=none;align=left;verticalAlign=middle;spacingLeft=4;spacingRight=4;overflow=hidden;rotatable=0;points=[[0,0.5],[1,0.5]];portConstraint=eastwest;rounded=0;strokeWidth=1;" parent="72" vertex="1">
                    <mxGeometry y="255" width="160" height="20" as="geometry"/>
                </mxCell>
                <mxCell id="87" value="- dreamType : String" style="text;html=1;strokeColor=none;fillColor=none;align=left;verticalAlign=middle;spacingLeft=4;spacingRight=4;overflow=hidden;rotatable=0;points=[[0,0.5],[1,0.5]];portConstraint=eastwest;rounded=0;strokeWidth=1;" parent="72" vertex="1">
                    <mxGeometry y="275" width="160" height="20" as="geometry"/>
                </mxCell>
                <mxCell id="207" value="- realityLevel : String" style="text;html=1;strokeColor=none;fillColor=none;align=left;verticalAlign=middle;spacingLeft=4;spacingRight=4;overflow=hidden;rotatable=0;points=[[0,0.5],[1,0.5]];portConstraint=eastwest;rounded=0;strokeWidth=1;" vertex="1" parent="72">
                    <mxGeometry y="295" width="160" height="20" as="geometry"/>
                </mxCell>
                <mxCell id="208" value="- eroticDream : Bool" style="text;html=1;strokeColor=none;fillColor=none;align=left;verticalAlign=middle;spacingLeft=4;spacingRight=4;overflow=hidden;rotatable=0;points=[[0,0.5],[1,0.5]];portConstraint=eastwest;rounded=0;strokeWidth=1;" vertex="1" parent="72">
                    <mxGeometry y="315" width="160" height="20" as="geometry"/>
                </mxCell>
                <mxCell id="123" value="- hiddenDream : Bool" style="text;html=1;strokeColor=none;fillColor=none;align=left;verticalAlign=middle;spacingLeft=4;spacingRight=4;overflow=hidden;rotatable=0;points=[[0,0.5],[1,0.5]];portConstraint=eastwest;rounded=0;strokeWidth=1;" vertex="1" parent="72">
                    <mxGeometry y="335" width="160" height="20" as="geometry"/>
                </mxCell>
                <mxCell id="209" value="- personalAnalysis : String" style="text;html=1;strokeColor=none;fillColor=none;align=left;verticalAlign=middle;spacingLeft=4;spacingRight=4;overflow=hidden;rotatable=0;points=[[0,0.5],[1,0.5]];portConstraint=eastwest;rounded=0;strokeWidth=1;" vertex="1" parent="72">
                    <mxGeometry y="355" width="160" height="20" as="geometry"/>
                </mxCell>
                <mxCell id="126" style="text;html=1;strokeColor=none;fillColor=none;align=left;verticalAlign=middle;spacingLeft=4;spacingRight=4;overflow=hidden;rotatable=0;points=[[0,0.5],[1,0.5]];portConstraint=eastwest;rounded=0;strokeWidth=1;" vertex="1" parent="72">
                    <mxGeometry y="375" width="160" height="20" as="geometry"/>
                </mxCell>
                <mxCell id="74" value="" style="line;strokeWidth=1;fillColor=none;align=left;verticalAlign=middle;spacingTop=-1;spacingLeft=3;spacingRight=3;rotatable=0;labelPosition=right;points=[];portConstraint=eastwest;rounded=0;strokeColor=default;" parent="72" vertex="1">
                    <mxGeometry y="395" width="160" height="8" as="geometry"/>
                </mxCell>
                <mxCell id="75" style="text;html=1;strokeColor=none;fillColor=none;align=left;verticalAlign=middle;spacingLeft=4;spacingRight=4;overflow=hidden;rotatable=0;points=[[0,0.5],[1,0.5]];portConstraint=eastwest;rounded=0;strokeWidth=1;" parent="72" vertex="1">
                    <mxGeometry y="403" width="160" height="20" as="geometry"/>
                </mxCell>
                <mxCell id="88" value="TAG" style="swimlane;fontStyle=0;align=center;verticalAlign=top;childLayout=stackLayout;horizontal=1;startSize=55;horizontalStack=0;resizeParent=1;resizeParentMax=0;resizeLast=0;collapsible=0;marginBottom=0;html=1;rounded=0;strokeColor=default;strokeWidth=1;" parent="1" vertex="1">
                    <mxGeometry x="-90" y="160" width="160" height="183" as="geometry"/>
                </mxCell>
                <mxCell id="89" value="- id : Int" style="text;html=1;strokeColor=none;fillColor=none;align=left;verticalAlign=middle;spacingLeft=4;spacingRight=4;overflow=hidden;rotatable=0;points=[[0,0.5],[1,0.5]];portConstraint=eastwest;rounded=0;strokeWidth=1;" parent="88" vertex="1">
                    <mxGeometry y="55" width="160" height="20" as="geometry"/>
                </mxCell>
                <mxCell id="93" value="- title : String" style="text;html=1;strokeColor=none;fillColor=none;align=left;verticalAlign=middle;spacingLeft=4;spacingRight=4;overflow=hidden;rotatable=0;points=[[0,0.5],[1,0.5]];portConstraint=eastwest;rounded=0;strokeWidth=1;" parent="88" vertex="1">
                    <mxGeometry y="75" width="160" height="20" as="geometry"/>
                </mxCell>
                <mxCell id="92" value="- created : Date" style="text;html=1;strokeColor=none;fillColor=none;align=left;verticalAlign=middle;spacingLeft=4;spacingRight=4;overflow=hidden;rotatable=0;points=[[0,0.5],[1,0.5]];portConstraint=eastwest;rounded=0;strokeWidth=1;" parent="88" vertex="1">
                    <mxGeometry y="95" width="160" height="20" as="geometry"/>
                </mxCell>
                <mxCell id="95" style="text;html=1;strokeColor=none;fillColor=none;align=left;verticalAlign=middle;spacingLeft=4;spacingRight=4;overflow=hidden;rotatable=0;points=[[0,0.5],[1,0.5]];portConstraint=eastwest;rounded=0;strokeWidth=1;" parent="88" vertex="1">
                    <mxGeometry y="115" width="160" height="20" as="geometry"/>
                </mxCell>
                <mxCell id="90" value="" style="line;strokeWidth=1;fillColor=none;align=left;verticalAlign=middle;spacingTop=-1;spacingLeft=3;spacingRight=3;rotatable=0;labelPosition=right;points=[];portConstraint=eastwest;rounded=0;strokeColor=default;" parent="88" vertex="1">
                    <mxGeometry y="135" width="160" height="8" as="geometry"/>
                </mxCell>
                <mxCell id="119" value="+ AttachDream() : void" style="text;html=1;strokeColor=none;fillColor=none;align=left;verticalAlign=middle;spacingLeft=4;spacingRight=4;overflow=hidden;rotatable=0;points=[[0,0.5],[1,0.5]];portConstraint=eastwest;rounded=0;strokeWidth=1;" vertex="1" parent="88">
                    <mxGeometry y="143" width="160" height="20" as="geometry"/>
                </mxCell>
                <mxCell id="122" style="text;html=1;strokeColor=none;fillColor=none;align=left;verticalAlign=middle;spacingLeft=4;spacingRight=4;overflow=hidden;rotatable=0;points=[[0,0.5],[1,0.5]];portConstraint=eastwest;rounded=0;strokeWidth=1;" vertex="1" parent="88">
                    <mxGeometry y="163" width="160" height="20" as="geometry"/>
                </mxCell>
                <mxCell id="100" style="edgeStyle=none;html=1;entryX=0.5;entryY=0;entryDx=0;entryDy=0;strokeColor=default;endArrow=none;endFill=0;" parent="1" target="72" edge="1">
                    <mxGeometry relative="1" as="geometry">
                        <mxPoint y="-360" as="sourcePoint"/>
                        <Array as="points">
                            <mxPoint x="-320" y="-360"/>
                        </Array>
                    </mxGeometry>
                </mxCell>
                <mxCell id="107" value="1" style="edgeLabel;html=1;align=center;verticalAlign=middle;resizable=0;points=[];" parent="100" vertex="1" connectable="0">
                    <mxGeometry x="-0.63" y="-1" relative="1" as="geometry">
                        <mxPoint as="offset"/>
                    </mxGeometry>
                </mxCell>
                <mxCell id="108" value="N" style="edgeLabel;html=1;align=center;verticalAlign=middle;resizable=0;points=[];" parent="100" vertex="1" connectable="0">
                    <mxGeometry x="0.8082" y="1" relative="1" as="geometry">
                        <mxPoint as="offset"/>
                    </mxGeometry>
                </mxCell>
                <mxCell id="104" style="edgeStyle=none;html=1;entryX=1;entryY=0.5;entryDx=0;entryDy=0;strokeColor=default;endArrow=none;endFill=0;" parent="1" source="65" target="84" edge="1">
                    <mxGeometry relative="1" as="geometry"/>
                </mxCell>
                <mxCell id="111" value="1" style="edgeLabel;html=1;align=center;verticalAlign=middle;resizable=0;points=[];" parent="104" vertex="1" connectable="0">
                    <mxGeometry x="-0.7081" relative="1" as="geometry">
                        <mxPoint as="offset"/>
                    </mxGeometry>
                </mxCell>
                <mxCell id="112" value="N" style="edgeLabel;html=1;align=center;verticalAlign=middle;resizable=0;points=[];" parent="104" vertex="1" connectable="0">
                    <mxGeometry x="0.7544" y="3" relative="1" as="geometry">
                        <mxPoint as="offset"/>
                    </mxGeometry>
                </mxCell>
                <mxCell id="210" style="edgeStyle=none;html=1;entryX=0;entryY=0.5;entryDx=0;entryDy=0;endArrow=none;endFill=0;" edge="1" parent="1" source="75" target="92">
                    <mxGeometry relative="1" as="geometry">
                        <mxPoint x="-270" y="190" as="sourcePoint"/>
                        <Array as="points">
                            <mxPoint x="-320" y="265"/>
                        </Array>
                    </mxGeometry>
                </mxCell>
                <mxCell id="211" value="N" style="edgeLabel;html=1;align=center;verticalAlign=middle;resizable=0;points=[];" vertex="1" connectable="0" parent="210">
                    <mxGeometry x="-0.8189" y="-2" relative="1" as="geometry">
                        <mxPoint y="-1" as="offset"/>
                    </mxGeometry>
                </mxCell>
                <mxCell id="212" value="N" style="edgeLabel;html=1;align=center;verticalAlign=middle;resizable=0;points=[];" vertex="1" connectable="0" parent="210">
                    <mxGeometry x="0.7756" y="3" relative="1" as="geometry">
                        <mxPoint as="offset"/>
                    </mxGeometry>
                </mxCell>
            </root>
        </mxGraphModel>
    </diagram>
</mxfile>